<svg id="visual" viewBox="0 0 900 600" width="900" height="600" xmlns="http://www.w3.org/2000/svg" xmlns:xlink="http://www.w3.org/1999/xlink" version="1.1"><rect x="0" y="0" width="900" height="600" fill="#fff"></rect><path d="M0 133L21.5 123.7C43 114.3 86 95.7 128.8 81.3C171.7 67 214.3 57 257.2 60.8C300 64.7 343 82.3 385.8 96.7C428.7 111 471.3 122 514.2 119.8C557 117.7 600 102.3 642.8 91.2C685.7 80 728.3 73 771.2 75.2C814 77.3 857 88.7 878.5 94.3L900 100L900 0L878.5 0C857 0 814 0 771.2 0C728.3 0 685.7 0 642.8 0C600 0 557 0 514.2 0C471.3 0 428.7 0 385.8 0C343 0 300 0 257.2 0C214.3 0 171.7 0 128.8 0C86 0 43 0 21.5 0L0 0Z" fill="#38d39f" stroke-linecap="round" stroke-linejoin="miter"></path></svg>