<svg id="visual" viewBox="0 0 900 600" width="900" height="600" xmlns="http://www.w3.org/2000/svg" xmlns:xlink="http://www.w3.org/1999/xlink" version="1.1"><rect x="0" y="0" width="900" height="600" fill="#fff"></rect><path d="M0 61L21.5 63.2C43 65.3 86 69.7 128.8 75.8C171.7 82 214.3 90 257.2 97.3C300 104.7 343 111.3 385.8 115.7C428.7 120 471.3 122 514.2 112C557 102 600 80 642.8 78.2C685.7 76.3 728.3 94.7 771.2 96.5C814 98.3 857 83.7 878.5 76.3L900 69L900 0L878.5 0C857 0 814 0 771.2 0C728.3 0 685.7 0 642.8 0C600 0 557 0 514.2 0C471.3 0 428.7 0 385.8 0C343 0 300 0 257.2 0C214.3 0 171.7 0 128.8 0C86 0 43 0 21.5 0L0 0Z" fill="#38d39f" stroke-linecap="round" stroke-linejoin="miter"></path></svg>