<svg id="visual" viewBox="0 0 900 600" width="900" height="600" xmlns="http://www.w3.org/2000/svg" xmlns:xlink="http://www.w3.org/1999/xlink" version="1.1"><rect x="0" y="0" width="900" height="600" fill="#fff"></rect><path d="M0 52L13.7 50.7C27.3 49.3 54.7 46.7 82 47.8C109.3 49 136.7 54 163.8 53.3C191 52.7 218 46.3 245.2 47.2C272.3 48 299.7 56 327 61.2C354.3 66.3 381.7 68.7 409 69.5C436.3 70.3 463.7 69.7 491 67.5C518.3 65.3 545.7 61.7 573 59.3C600.3 57 627.7 56 654.8 60.2C682 64.3 709 73.7 736.2 73.8C763.3 74 790.7 65 818 59.8C845.3 54.7 872.7 53.3 886.3 52.7L900 52L900 0L886.3 0C872.7 0 845.3 0 818 0C790.7 0 763.3 0 736.2 0C709 0 682 0 654.8 0C627.7 0 600.3 0 573 0C545.7 0 518.3 0 491 0C463.7 0 436.3 0 409 0C381.7 0 354.3 0 327 0C299.7 0 272.3 0 245.2 0C218 0 191 0 163.8 0C136.7 0 109.3 0 82 0C54.7 0 27.3 0 13.7 0L0 0Z" fill="#38d39f" stroke-linecap="round" stroke-linejoin="miter"></path></svg>